<svg width="274" height="267" viewBox="0 0 274 267" fill="none" xmlns="http://www.w3.org/2000/svg">
<path d="M216.843 266.465C210.881 266.465 167.732 266.465 147.568 266.465C141.845 266.465 137.234 261.824 137.234 256.1V241.148V226.196C137.234 220.471 141.873 215.831 147.596 215.831H202.618C202.618 215.831 226.52 215.831 226.52 193.466V76.0815C226.52 70.3568 231.159 65.7163 236.882 65.7163H262.631C268.354 65.7163 272.993 70.3568 272.993 76.0815V193.466C272.993 217.418 268.169 235.573 258.519 247.93C248.87 260.287 234.977 266.465 216.843 266.465Z" fill="url(#paint0_linear_1776_317)"/>
<path d="M93.2581 163.251H10.362C4.63923 163.251 0 167.892 0 173.617V256.538C0 262.263 4.63923 266.903 10.362 266.903H93.2581C98.9809 266.903 103.62 262.263 103.62 256.538V173.617C103.62 167.892 98.9809 163.251 93.2581 163.251Z" fill="url(#paint1_linear_1776_317)"/>
<path d="M184.962 65.8188H126.417C120.694 65.8188 116.055 70.4595 116.055 76.184V134.747C116.055 140.472 120.694 145.112 126.417 145.112H184.962C190.685 145.112 195.324 140.472 195.324 134.747V76.184C195.324 70.4595 190.685 65.8188 184.962 65.8188Z" fill="url(#paint2_linear_1776_317)"/>
<path d="M262.679 0H237.292C231.569 0 226.93 4.64065 226.93 10.3652V35.7599C226.93 41.4844 231.569 46.125 237.292 46.125H262.679C268.401 46.125 273.041 41.4844 273.041 35.7599V10.3652C273.041 4.64065 268.401 0 262.679 0Z" fill="url(#paint3_linear_1776_317)"/>
<defs>
<linearGradient id="paint0_linear_1776_317" x1="205.114" y1="65.7163" x2="263.219" y2="361.19" gradientUnits="userSpaceOnUse">
<stop/>
<stop offset="1" stop-color="#808080"/>
</linearGradient>
<linearGradient id="paint1_linear_1776_317" x1="51.8101" y1="163.251" x2="68.7508" y2="273.287" gradientUnits="userSpaceOnUse">
<stop stop-color="#3E4EDA"/>
<stop offset="1" stop-color="#5869F9"/>
</linearGradient>
<linearGradient id="paint2_linear_1776_317" x1="155.689" y1="65.8188" x2="155.689" y2="145.112" gradientUnits="userSpaceOnUse">
<stop stop-color="#39DAAF"/>
<stop offset="1" stop-color="#79FBD8"/>
</linearGradient>
<linearGradient id="paint3_linear_1776_317" x1="249.985" y1="0" x2="249.985" y2="46.125" gradientUnits="userSpaceOnUse">
<stop stop-color="#DB8D35"/>
<stop offset="1" stop-color="#FFB868"/>
</linearGradient>
</defs>
</svg>
